<?xml version="1.0" encoding="UTF-8"?>
<svg version="1.1" xmlns="http://www.w3.org/2000/svg" width="128" height="128">
<path d="M0 0 C42.24 0 84.48 0 128 0 C128 42.24 128 84.48 128 128 C85.76 128 43.52 128 0 128 C0 85.76 0 43.52 0 0 Z " fill="#FEFEFE" transform="translate(0,0)"/>
<path d="M0 0 C2.1979747 2.71083547 2.92397877 4.48957172 3.4375 7.9375 C2.8806713 11.83530088 1.43417323 13.93989651 -1 17 C-5.1315287 19.75435247 -9.12281159 19.38544151 -13.93164062 19.47851562 C-18.63638538 19.65895953 -21.89679287 20.46745673 -26 23 C-29.86428845 27.28204936 -31.10004338 29.94339005 -31.5625 35.625 C-31.64628906 36.62789062 -31.73007813 37.63078125 -31.81640625 38.6640625 C-31.90728516 39.82035156 -31.90728516 39.82035156 -32 41 C-30.81241089 40.97643433 -30.81241089 40.97643433 -29.60083008 40.95239258 C-26.00479305 40.88993301 -22.4088703 40.85097365 -18.8125 40.8125 C-17.56662109 40.78736328 -16.32074219 40.76222656 -15.03710938 40.73632812 C-13.83505859 40.72666016 -12.63300781 40.71699219 -11.39453125 40.70703125 C-10.28956299 40.6913208 -9.18459473 40.67561035 -8.04614258 40.65942383 C-4.59969621 41.04475625 -2.77621244 41.96047744 0 44 C2.12738138 46.71424521 2.92909561 48.5239277 3.4375 51.9375 C2.86805603 55.92360781 1.59153951 57.93107163 -1 61 C-6.70979281 65.00061141 -12.69810114 64.34085633 -19.375 64.1875 C-21.05142578 64.16719727 -21.05142578 64.16719727 -22.76171875 64.14648438 C-25.50831211 64.11127164 -28.25390289 64.06202096 -31 64 C-30.97679687 64.72227783 -30.95359375 65.44455566 -30.9296875 66.1887207 C-30.74310593 76.16667013 -32.80731762 84.05267593 -39.8125 91.5 C-47.62205588 98.61438708 -55.72403966 100.56592685 -66.12890625 100.34375 C-71.65945434 99.85264179 -75.4687091 98.11165149 -80 95 C-80.98419922 94.34837891 -80.98419922 94.34837891 -81.98828125 93.68359375 C-87.89846949 89.24146083 -90.70630035 82.88109896 -93 76 C-93.87326178 65.79285815 -92.68575783 57.36407757 -86.25 49.1875 C-80.67531058 43.21864062 -73.57557958 39.24494537 -65.3515625 38.8046875 C-64.12179688 38.82789063 -62.89203125 38.85109375 -61.625 38.875 C-60.37976562 38.89304688 -59.13453125 38.91109375 -57.8515625 38.9296875 C-56.91054688 38.95289063 -55.96953125 38.97609375 -55 39 C-54.96261719 38.32195313 -54.92523438 37.64390625 -54.88671875 36.9453125 C-54.0733734 25.43089405 -51.43378837 14.23456359 -42.85546875 5.921875 C-31.78949288 -3.05155688 -12.8699574 -7.89231211 0 0 Z " fill="#845AF6" transform="translate(109,15)"/>
<path d="M0 0 C3.5060303 0.86943897 4.94966563 2.56083702 6.9375 5.48046875 C7.7253128 9.89222045 7.46725133 11.70239649 4.9375 15.41796875 C1.60161401 17.71139037 -0.16234094 18.23862384 -4.125 17.9609375 C-7.6310303 17.09149853 -9.07466563 15.40010048 -11.0625 12.48046875 C-11.8503128 8.06871705 -11.59225133 6.25854101 -9.0625 2.54296875 C-5.72661401 0.24954713 -3.96265906 -0.27768634 0 0 Z " fill="#FCFBFE" transform="translate(49.0625,75.51953125)"/>
</svg>
